<svg xmlns="http://www.w3.org/2000/svg" width="39" height="31">
    <path fill="#FFF" fill-rule="evenodd" d="M32.735 30.399h-2.16c-.69 0-1.332-.313-1.762-.86-.431-.546-.591-1.252-.439-1.937l2.331-10.493c.773-3.474-.04-7.061-2.229-9.843-2.19-2.784-5.456-4.379-8.964-4.379s-6.774 1.595-8.964 4.379c-2.189 2.782-3.002 6.369-2.23 9.841l2.332 10.494c.151.686-.009 1.392-.439 1.938-.431.547-1.073.86-1.762.86H6.288c-2.338 0-4.331-1.617-4.842-3.934L.222 20.963c-.335-1.502.017-3.054.964-4.259.949-1.204 2.364-1.895 3.88-1.895h.26c-.068-3.332 1.008-6.596 3.105-9.262 2.707-3.44 6.746-5.41 11.081-5.41 4.335 0 8.373 1.97 11.08 5.41 2.097 2.666 3.173 5.93 3.106 9.262h.259c1.517 0 2.931.691 3.88 1.895.947 1.205 1.3 2.757.965 4.259l-1.224 5.503c-.511 2.316-2.504 3.933-4.843 3.933zm-1.594-2.75h1.594c1.063 0 1.968-.736 2.201-1.788l1.224-5.504c.151-.684-.009-1.388-.439-1.936-.431-.547-1.074-.86-1.764-.86h-.576l-.034.155-2.206 9.933zM5.066 17.561c-.689 0-1.333.313-1.763.86-.43.548-.591 1.252-.439 1.936l1.224 5.502c.233 1.054 1.137 1.79 2.2 1.79h1.595l-2.206-9.933c-.013-.053-.024-.106-.034-.155h-.577z"/>
</svg>
